<?xml version="1.0" standalone="no"?>
<!DOCTYPE svg PUBLIC "-//W3C//DTD SVG 20010904//EN"
 "http://www.w3.org/TR/2001/REC-SVG-20010904/DTD/svg10.dtd">
<svg version="1.0" xmlns="http://www.w3.org/2000/svg"
 width="52.000000pt" height="52.000000pt" viewBox="0 0 192.000000 192.000000"
 preserveAspectRatio="xMidYMid meet">

<g transform="translate(0.000000,192.000000) scale(0.100000,-0.100000)"
fill="#000000" stroke="none">
<path d="M900 1425 c0 -23 -78 -316 -95 -357 -6 -16 -1 -18 43 -18 l51 0 3 48
3 47 61 3 c67 3 74 -3 74 -70 0 -27 2 -28 55 -28 60 0 61 1 43 33 -19 36 -97
337 -91 353 4 11 -9 14 -71 14 -74 0 -76 -1 -76 -25z m91 -127 c10 -40 19 -74
19 -75 0 -2 -18 -3 -40 -3 -22 0 -40 3 -40 8 0 16 34 151 38 148 2 -2 12 -37
23 -78z"/>
<path d="M760 960 c0 -5 5 -10 10 -10 6 0 10 5 10 10 0 6 -4 10 -10 10 -5 0
-10 -4 -10 -10z"/>
<path d="M790 960 c0 -7 66 -10 190 -10 109 1 190 5 190 11 0 5 -80 9 -190 9
-124 0 -190 -4 -190 -10z"/>
<path d="M825 670 l0 -200 50 0 50 0 -3 90 -3 90 57 0 56 0 -4 -90 -4 -90 45
0 46 0 0 200 0 200 -46 0 -46 0 5 -75 5 -75 -58 0 -57 0 4 75 3 75 -50 0 -50
0 0 -200z"/>
</g>
</svg>
